/* XPM */
static char * close_pressed_xpm[] = {
"24 24 35 1",
" 	c #2F2F2F",
".	c #303030",
"+	c #303130",
"@	c #353732",
"#	c #373737",
"$	c #363833",
"%	c #48513E",
"&	c #48523F",
"*	c #49523F",
"=	c #4B5640",
"-	c #4C5741",
";	c #4D5841",
">	c #4D5942",
",	c #4E5A42",
"'	c #515F44",
")	c #525F44",
"!	c #536146",
"~	c #556346",
"{	c #556447",
"]	c #566447",
"^	c #566547",
"/	c #576648",
"(	c #586748",
"_	c #6C8355",
":	c #6C8455",
"<	c #6D8455",
"[	c #6D8556",
"}	c #77925B",
"|	c #77935C",
"1	c #78935C",
"2	c #7A975D",
"3	c #7A975E",
"4	c #7B975E",
"5	c #7B985E",
"6	c #A9B650",
"########################",
"                        ",
"                        ",
"                        ",
"           ++           ",
"        $(}66}($        ",
"       =66666666=       ",
"      =6666666666=      ",
"     $666666666666$     ",
"     (666$(66(@666(     ",
"    +2666(@((@(666}     ",
"    +66666(@@(66666+    ",
"    +66666(@@~66666+    ",
"    +2666(@__@(666}     ",
"    +(666%_66_%666(     ",
"     $666666666666$     ",
"     +,6666666666=      ",
"      +,66666665=       ",
"        $(}66}(@        ",
"          +++.          ",
"                        ",
"                        ",
"                        ",
"                        "};
