/* XPM */
static char * close_active_xpm[] = {
"24 24 11 1",
" 	c #263C32",
".	c #002C1B",
"+	c #687858",
"@	c #A9B650",
"#	c #58634C",
"$	c #56624B",
"%	c #99B77B",
"&	c #667556",
"*	c #373935",
"=	c #606E52",
"-	c #859D6D",
"                        ",
"........................",
"........................",
"........................",
"........................",
".........+@@@@+.........",
".......#@@@@@@@@$.......",
"......#%@@@@@@@@%$......",
"......@@@@@@@@@@@@......",
".....+@@@.&%%&.@@@+.....",
".....@@@@+*&&*+@@@@.....",
".....@@@@@+**+@@@@@.....",
".....@@@@%&**=%@@@@.....",
".....@@@@&*++*&@@@@.....",
".....+@@@.-@@-.@@@+.....",
"......@@@@@@@@@@@@......",
"......$%@@@@@@@@%$......",
".......$@@@@@@@@$.......",
".........+@@@@+.........",
"........................",
"........................",
"........................",
"........................",
"........................"};
