/* XPM */
static char * close_pressed_xpm[] = {
"24 24 14 1",
" 	c #263C32",
".	c #002C1B",
"+	c #586748",
"@	c #77925B",
"#	c #A9B650",
"$	c #4B5640",
"%	c #353732",
"&	c #7A975D",
"*	c #556346",
"=	c #6C8355",
"-	c #48513E",
";	c #4E5A42",
">	c #7B985E",
",	c #303030",
"                        ",
"........................",
"........................",
"........................",
"...........  ...........",
"........ +@##@+ ........",
".......$########$.......",
"......$##########$......",
"..... ############ .....",
".....+### +##+%###+.....",
".... &###+%++%+###@.....",
".... #####+%%+##### ....",
".... #####+%%*##### ....",
".... &###+%==%+###@.....",
".... +###-=##=-###+.....",
"..... ############ .....",
"..... ;##########$......",
"...... ;#######>$.......",
"........ +@##@+%........",
"..........   ,..........",
"........................",
"........................",
"........................",
"........................"};
