/* XPM */
static char * close_prelight_xpm[] = {
"24 24 11 1",
" 	c #263C32",
".	c #002C1B",
"+	c #738165",
"@	c #A8C18F",
"#	c #AFCA95",
"$	c #98AE83",
"%	c #5E6854",
"&	c #5A6351",
"*	c #707D62",
"=	c #A9B650",
"-	c #69755D",
"                        ",
"........................",
"........................",
"........................",
"........................",
"........ +@##$+ ........",
".......%########&.......",
"......%##########&......",
"..... ############ .....",
".....+### *##* ###+.....",
".... @###= ** =###$.....",
".... #####=  +#####.....",
".... #####-  -#####.....",
".....@###* == *###$.....",
".....+### =##= ###+.....",
"..... ############ .....",
"......&##########&......",
".......&########&.......",
"........ +$##$+ ........",
"........................",
"........................",
"........................",
"........................",
"........................"};
