/* XPM */
static char * close_prelight_xpm[] = {
"24 24 40 1",
" 	c #2F2F2F",
".	c #303130",
"+	c #313231",
"@	c #373737",
"#	c #393B37",
"$	c #3A3C38",
"%	c #586150",
"&	c #5A6251",
"*	c #5A6351",
"=	c #5E6854",
"-	c #5F6955",
";	c #606A56",
">	c #606B56",
",	c #616B57",
"'	c #626C57",
")	c #636E59",
"!	c #69755D",
"~	c #6A765E",
"{	c #6C7960",
"]	c #6E7C62",
"^	c #6F7D62",
"/	c #707D62",
"(	c #707E63",
"_	c #717F64",
":	c #728064",
"<	c #738165",
"[	c #96AB81",
"}	c #96AC81",
"|	c #97AD82",
"1	c #98AE83",
"2	c #A9B650",
"3	c #A8C18F",
"4	c #A8C28F",
"5	c #A8C290",
"6	c #A9C290",
"7	c #A9C391",
"8	c #ADC894",
"9	c #AEC894",
"0	c #AEC994",
"a	c #AFCA95",
"@@@@@@@@@@@@@@@@@@@@@@@@",
"                        ",
"                        ",
"                        ",
"                        ",
"        $<3aa1<$        ",
"       =aaaaaaaa*       ",
"      =aaaaaaaaaa*      ",
"     $aaaaaaaaaaaa$     ",
"     <aaa#/aa/#aaa<     ",
"    .3aaa2#//#2aaa1     ",
"    .aaaaa2##<aaaaa     ",
"    .aaaaa!##!aaaaa     ",
"     3aaa/#22#/aaa1     ",
"     <aaa$2aa2$aaa<     ",
"     $aaaaaaaaaaaa#     ",
"      *aaaaaaaaaa*      ",
"       *aaaaaaaa*       ",
"        $<1aa1<#        ",
"                        ",
"                        ",
"                        ",
"                        ",
"                        "};
