/* XPM */
static char * hide_inactive_xpm[] = {
"24 24 3 1",
" 	c #263C32",
".	c #002C1B",
"+	c #666666",
"                        ",
"........................",
"........................",
"........................",
"........................",
"........................",
"........................",
"........................",
"........................",
"........................",
"........................",
".........++++++.........",
".........++++++.........",
"........................",
"........................",
"........................",
"........................",
"........................",
"........................",
"........................",
"........................",
"........................",
"........................",
"........................"};
