/* XPM */
static char * hide_prelight_xpm[] = {
"24 24 24 1",
" 	c #263C32",
".	c #002C1B",
"+	c #012C1B",
"@	c #012B1B",
"#	c #0C2B1E",
"$	c #444444",
"%	c #4B4B4B",
"&	c #0E2B1E",
"*	c #112B1F",
"=	c #4C4C4C",
"-	c #434343",
";	c #022C1B",
">	c #042B1C",
",	c #22392F",
"'	c #072C1D",
")	c #3D403E",
"!	c #072B1C",
"~	c #C4C4C4",
"{	c #444745",
"]	c #062B1C",
"^	c #062C1D",
"/	c #082C1D",
"(	c #0A2B1D",
"_	c #0D2B1E",
"                        ",
"........................",
"........................",
"........................",
"........................",
".........+.@@...........",
"........# $%%$ &........",
".......*$%====%-;.......",
"......>$========$>......",
"...... =========%,'.....",
".....+-==========)!.....",
".....+%==~~~~~~=%{].....",
".....>%%=~~~~~~=={!.....",
".....+-%========%)......",
".....^ =========%,/.....",
"......*$========-*......",
".......($==%==%$_+......",
"........@ -%%- ];'......",
"........................",
"........................",
"........................",
"........................",
"........................",
"........................"};
