/* XPM */
static char * hide_active_xpm[] = {
"24 24 3 1",
" 	c #263C32",
".	c #002C1B",
"+	c #909090",
"                        ",
"........................",
"........................",
"........................",
"........................",
"........................",
"........................",
"........................",
"........................",
"........................",
"........................",
".........++++++.........",
".........++++++.........",
"........................",
"........................",
"........................",
"........................",
"........................",
"........................",
"........................",
"........................",
"........................",
"........................",
"........................"};
