/* XPM */
static char * hide_pressed_xpm[] = {
"24 24 12 1",
" 	c #263C32",
".	c #002C1B",
"+	c #012C1B",
"@	c #012C1C",
"#	c #565656",
"$	c #7B7B7B",
"%	c #8E8E8E",
"&	c #949494",
"*	c #7F7F7F",
"=	c #022C1C",
"-	c #072C1D",
";	c #FFFFFF",
"                        ",
"........................",
"........................",
"........................",
".........+..............",
"........................",
".......@.#$%&$#.........",
"........*&&&&&&*=.......",
".......*&&&&&&&&*.-.....",
".....=#&&&&&&&&&&#......",
"......*&&&&&&&&&&$......",
"......%&&;;;;;;&&&......",
".....+%&&;;;;;;&&%+.....",
".....+*&&&&&&&&&&$......",
".....+#&&&&&&&&&&#......",
".......*&&&&&&&&*.......",
"........*&&&&&&*.+......",
".........#$%%$#.........",
"........................",
"........................",
"........................",
"........................",
"........................",
"........................"};
