/* XPM */
static char * maximize_pressed_xpm[] = {
"24 24 36 1",
" 	c #263C32",
".	c #002C1B",
"+	c #082D1E",
"@	c #062C1D",
"#	c #032C1C",
"$	c #042C1C",
"%	c #052D1D",
"&	c #2A2E2C",
"*	c #4E504F",
"=	c #707271",
"-	c #828382",
";	c #878888",
">	c #1D2D25",
",	c #082D1D",
"'	c #022C1B",
")	c #323232",
"!	c #7F7F7F",
"~	c #949494",
"{	c #1B2D23",
"]	c #2F2F2F",
"^	c #012C1B",
"/	c #565656",
"(	c #DDDDDD",
"_	c #FFFFFF",
":	c #EAEAEA",
"<	c #979797",
"[	c #7B7B7B",
"}	c #8E8E8E",
"|	c #DADADA",
"1	c #E0E0E0",
"2	c #555555",
"3	c #0A2D1E",
"4	c #212D27",
"5	c #1A2E24",
"6	c #022C1C",
"7	c #012B1B",
"                        ",
"........................",
"........................",
"........................",
"........................",
".........+@##@$.........",
".......%&*=-;=*>,.......",
"......')!~~~~~~!)+......",
"......{!~~~~~~~~!]^.....",
"....../~~~~(__:~~/#.....",
"......!~~~<<(__~~['.....",
"......}~~(<~~|_~~~'.....",
"......}~~_1~~~(~~}^.....",
"......!~<__|<~~~~['.....",
"......2}~:__(~~~~/3.....",
"......]}~~~~~~~~!4......",
"......+)!~~~~~~!)$......",
".......'5/[}}[/]+^......",
"..........677^$^........",
"........................",
"........................",
"........................",
"........................",
"........................"};
