/* XPM */
static char * maximize_prelight_xpm[] = {
"24 24 37 1",
" 	c #263C32",
".	c #002C1B",
"+	c #022C1B",
"@	c #072B1C",
"#	c #092C1D",
"$	c #0A2B1D",
"%	c #1D372B",
"&	c #444444",
"*	c #4B4B4B",
"=	c #0D2B1E",
"-	c #1B2B23",
";	c #4C4C4C",
">	c #434343",
",	c #072C1C",
"'	c #152B20",
")	c #092C1E",
"!	c #4F4F4F",
"~	c #9D9D9D",
"{	c #C4C4C4",
"]	c #AEAEAE",
"^	c #1A3529",
"/	c #0A2C1E",
"(	c #102B1F",
"_	c #122B20",
":	c #A0A0A0",
"<	c #112A1E",
"[	c #062B1C",
"}	c #0B2B1D",
"|	c #0C2C1E",
"1	c #032C1C",
"2	c #052C1C",
"3	c #032C1B",
"4	c #072B1D",
"5	c #012C1B",
"6	c #012B1B",
"7	c #042C1C",
"8	c #092B1D",
"                        ",
"........................",
"........................",
"........................",
"........................",
".........+.@@.#.........",
".......#$%&**& =#.......",
"......#-&*;;;;*>=#......",
".....,@&;;;;;;;;&'#.....",
".....) ;;;!~{{];*^/.....",
".....(>;;;;!~{{;;>_.....",
".....@**;:!;;~{;**<.....",
".....[**;{:!;;~;;*}.....",
"....#@>*;{{~;;;;*>......",
".....| ;;]{{~!;;* 1.....",
"....23.&;;;;;;;;>4......",
"......56&;;*;;*&@5......",
".......7} >**> }53......",
".........+.@8...........",
"........................",
"........................",
"........................",
"........................",
"........................"};
