/* XPM */
static char * maximize_active_xpm[] = {
"24 24 7 1",
" 	c #263C32",
".	c #002C1B",
"+	c #717171",
"@	c #909090",
"#	c #7D7D7D",
"$	c #747474",
"%	c #6E6E6E",
"                        ",
"........................",
"........................",
"........................",
"........................",
"........................",
"........................",
"........................",
"........................",
"...........+@@#.........",
"............+@@.........",
".........$...%@.........",
".........@$...%.........",
".........@@+............",
".........#@@+...........",
"........................",
"........................",
"........................",
"........................",
"........................",
"........................",
"........................",
"........................",
"........................"};
