/* XPM */
static char * maximize_inactive_xpm[] = {
"24 24 7 1",
" 	c #263C32",
".	c #002C1B",
"+	c #565656",
"@	c #666666",
"#	c #5B5B5B",
"$	c #535353",
"%	c #5C5C5C",
"                        ",
"........................",
"........................",
"........................",
"........................",
"........................",
"........................",
"........................",
"........................",
"...........+@@#.........",
"............$@@.........",
".........+...$@.........",
".........@+...$.........",
".........@@$............",
".........%@@+...........",
"........................",
"........................",
"........................",
"........................",
"........................",
"........................",
"........................",
"........................",
"........................"};
