/* XPM */
static char * menu_prelight_xpm[] = {
"24 24 53 1",
" 	c #263C32",
".	c #002C1B",
"+	c #032C1D",
"@	c #162D22",
"#	c #1A2C23",
"$	c #272727",
"%	c #1C2C24",
"&	c #1B2E24",
"*	c #0B2D1E",
"=	c #0F2D20",
"-	c #292929",
";	c #373737",
">	c #454545",
",	c #4B4B4B",
"'	c #363636",
")	c #092D1E",
"!	c #2A2A2A",
"~	c #464646",
"{	c #4C4C4C",
"]	c #2B2B2B",
"^	c #152E22",
"/	c #112D20",
"(	c #252C28",
"_	c #444444",
":	c #B4B4B4",
"<	c #AAAAAA",
"[	c #6E6E6E",
"}	c #434343",
"|	c #212C26",
"1	c #4A4A4A",
"2	c #9B9B9B",
"3	c #C3C3C3",
"4	c #BFBFBF",
"5	c #8E8E8E",
"6	c #282828",
"7	c #7A7A7A",
"8	c #B2B2B2",
"9	c #C4C4C4",
"0	c #7D7D7D",
"a	c #262827",
"b	c #5A5A5A",
"c	c #9C9C9C",
"d	c #0A2D1E",
"e	c #152D22",
"f	c #082C1D",
"g	c #0A2C1E",
"h	c #252A28",
"i	c #012C1B",
"j	c #052C1D",
"k	c #222D27",
"l	c #1E2D25",
"m	c #122E21",
"n	c #022C1C",
"                        ",
"........................",
"........................",
"........................",
"........................",
"........+@#$$%&*........",
".......=-;>,,>'-........",
"......)!~{{{{{{>].......",
"......-~{{{{{{{{>-......",
".....^;{{{{{{{{{{'/.....",
".....(_{:<[{{[<:{}|.....",
".....$1{23455432{16.....",
".....61{{7899:0{{1a.....",
".....(_{{{bccb{{{}|.....",
".....d'{{{{{{{{{{'e.....",
".....f->{{{{{{{{>-g.....",
".......h>{{{{{{>]i......",
"........-'}11_'-j.......",
"........./k$$lmn........",
"........................",
"........................",
"........................",
"........................",
"........................"};
