/* XPM */
static char * menu_pressed_xpm[] = {
"24 24 41 1",
" 	c #263C32",
".	c #002C1B",
"+	c #133023",
"@	c #22322A",
"#	c #2A2A2A",
"$	c #26322C",
"%	c #1D3228",
"&	c #052D1D",
"*	c #2D2F2E",
"=	c #565656",
"-	c #7B7B7B",
";	c #8E8E8E",
">	c #949494",
",	c #2F2F2F",
"'	c #323232",
")	c #7F7F7F",
"!	c #022D1C",
"~	c #112F22",
"{	c #122F22",
"]	c #2E3431",
"^	c #C8C8C8",
"/	c #FEFEFE",
"(	c #1B3025",
"_	c #BDBDBD",
":	c #E3E3E3",
"<	c #B1B1B1",
"[	c #F5F5F5",
"}	c #2D3430",
"|	c #9E9E9E",
"1	c #193125",
"2	c #1A3126",
"3	c #0D2D1F",
"4	c #012C1C",
"5	c #2C312E",
"6	c #022C1C",
"7	c #012C1B",
"8	c #2B2F2D",
"9	c #183025",
"0	c #23312A",
"a	c #24312A",
"b	c #163024",
"                        ",
"........................",
"........................",
"........................",
"........................",
".........+@##$%&........",
"........*=-;>-=,........",
".......')>>>>>>)'&......",
".....&,)>>>>>>>>),!.....",
".....~=>>>>>>>>>>={.....",
".....])>^/^>>^/^>)(.....",
".....#;>_//:://_>;#.....",
".....#;>><[//[<>>;#.....",
".....})>>>|::|>>>-$.....",
".....1=;>>>>>>>>>=2.....",
".....3#;>>>>>>>>),!.....",
"......4')>>>>>>)56......",
".......78=-;;-=,........",
".........90##ab.........",
"........................",
"........................",
"........................",
"........................",
"........................"};
