/* XPM */
static char * shade_toggled_prelight_xpm[] = {
"24 24 45 1",
" 	c #263C32",
".	c #002C1B",
"+	c #032D1C",
"@	c #162E22",
"#	c #272C29",
"$	c #272727",
"%	c #2C2C2C",
"&	c #2D312F",
"*	c #102D20",
"=	c #022C1C",
"-	c #292929",
";	c #373737",
">	c #454545",
",	c #4B4B4B",
"'	c #363636",
")	c #333333",
"!	c #212A26",
"~	c #464646",
"{	c #4C4C4C",
"]	c #2B2B2B",
"^	c #062D1D",
"/	c #8C8C8C",
"(	c #C1C1C1",
"_	c #C4C4C4",
":	c #8B8B8B",
"<	c #072D1D",
"[	c #1E2F26",
"}	c #122E21",
"|	c #222C27",
"1	c #444444",
"2	c #434343",
"3	c #1D2C24",
"4	c #4A4A4A",
"5	c #282828",
"6	c #1F2C25",
"7	c #0D2D1F",
"8	c #022D1C",
"9	c #0C2D1E",
"0	c #2A2A2A",
"a	c #0A2D1E",
"b	c #202F28",
"c	c #242D28",
"d	c #262D29",
"e	c #1C2E25",
"f	c #152D21",
"                        ",
"........................",
"........................",
"........................",
"........................",
"........+@#$$%&*........",
".......=-;>,,>'-).......",
".......!~{{{{{{>])......",
".....^-~/(____(:>-<.....",
".....[;{(_____{({'}.....",
".....|1{________{23.....",
".....$4{__{{{{__{45.....",
".....54{__{{{{__{45.....",
".....#1{__{{{{__{26.....",
".....['{________{'7.....",
".....8->________>-9.....",
"......=0>{{{{{{>]=......",
"........-'2441'-a.......",
"........8bc$$def........",
"........................",
"........................",
"........................",
"........................",
"........................"};
