/* XPM */
static char * shade_toggled_active_xpm[] = {
"24 24 7 1",
" 	c #263C32",
".	c #002C1B",
"+	c #636363",
"@	c #8E8E8E",
"#	c #909090",
"$	c #626262",
"%	c #8D8D8D",
"                        ",
"........................",
"........................",
"........................",
"........................",
"........................",
"........................",
"...........  ...........",
"........+@####@$........",
"........@#####.%........",
"........########........",
"........##....##........",
"........##....##........",
"........##....##........",
"........########........",
"........########........",
"........................",
"........................",
"........................",
"........................",
"........................",
"........................",
"........................",
"........................"};
