/* XPM */
static char * shade_prelight_xpm[] = {
"24 24 44 1",
" 	c #263C32",
".	c #002C1B",
"+	c #012C1B",
"@	c #152D22",
"#	c #242C28",
"$	c #272727",
"%	c #1F2C25",
"&	c #172E23",
"*	c #012D1C",
"=	c #022C1C",
"-	c #292929",
";	c #373737",
">	c #454545",
",	c #4B4B4B",
"'	c #363636",
")	c #2A2A2A",
"!	c #464646",
"~	c #4C4C4C",
"{	c #2B2B2B",
"]	c #042C1C",
"^	c #0A2D1F",
"/	c #8C8C8C",
"(	c #C1C1C1",
"_	c #C4C4C4",
":	c #8B8B8B",
"<	c #182E23",
"[	c #1C2E24",
"}	c #212C26",
"|	c #444444",
"1	c #434343",
"2	c #1A2C23",
"3	c #4A4A4A",
"4	c #888888",
"5	c #282828",
"6	c #192E23",
"7	c #032D1C",
"8	c #012C1C",
"9	c #072C1D",
"0	c #242A27",
"a	c #062D1D",
"b	c #1C2E25",
"c	c #262D29",
"d	c #242D28",
"e	c #1F2E27",
"                        ",
"........................",
"........................",
"........................",
"........................",
"........+@#$$%&*........",
".......=-;>,,>'-........",
"......=)!~~~~~~>{]......",
".....^-!/(____(:>-=.....",
".....<;~(_____~(~'[.....",
".....}|~________~12.....",
".....$3~~~~4/~~~~35.....",
".....53~~~4__/~~~35.....",
".....}|~~4____/~~1%.....",
".....&'~~~~__~~~~'6.....",
".....7->~~~__~~~>-8.....",
"......9)>~~~~~~>{]......",
"........0'133|'-a.......",
".........bc$$de7........",
"........................",
"........................",
"........................",
"........................",
"........................"};
