/* XPM */
static char * shade_toggled_pressed_xpm[] = {
"24 24 19 1",
" 	c #263C32",
".	c #002C1B",
"+	c #646464",
"@	c #818181",
"#	c #909090",
"$	c #636363",
"%	c #515151",
"&	c #8E8E8E",
"*	c #949494",
"=	c #939393",
"-	c #CDCDCD",
";	c #FCFCFC",
">	c #FFFFFF",
",	c #CCCCCC",
"'	c #8F8F8F",
")	c #626262",
"!	c #828282",
"~	c #505050",
"{	c #808080",
"                        ",
"........................",
"........................",
"........................",
"........................",
"........ +@##@$ ........",
".......%&******&%.......",
"......%=********=%......",
"..... &*-;>>>>;,*' .....",
".....+**;>>>>>*;**).....",
".....!**>>>>>>>>**@.....",
".....'**>>****>>**&.....",
".....&**>>****>>**'.....",
".....@**>>****>>**@.....",
".....$**>>>>>>>>**).....",
"..... &*>>>>>>>>*& .....",
"......%=********=~......",
".......%'******&~.......",
"........ ){''{) ........",
"........................",
"........................",
"........................",
"........................",
"........................"};
