/* XPM */
static char * stick_toggled_active_xpm[] = {
"24 24 26 1",
" 	c #263C32",
".	c #002C1B",
"+	c #404040",
"@	c #777777",
"#	c #363636",
"$	c #707070",
"%	c #7D7D7D",
"&	c #818181",
"*	c #4D4D4D",
"=	c #888888",
"-	c #909090",
";	c #464646",
">	c #7E7E7E",
",	c #474747",
"'	c #898989",
")	c #484848",
"!	c #7F7F7F",
"~	c #808080",
"{	c #727272",
"]	c #606060",
"^	c #4C4C4C",
"/	c #393939",
"(	c #5F5F5F",
"_	c #4F4F4F",
":	c #7C7C7C",
"<	c #686868",
"                        ",
"........................",
"........................",
"........................",
"........................",
"........................",
"........................",
".......+@#.. $..........",
".......#%&#*=-..........",
"........;>&,'-..........",
"........')!~,'..........",
"........-';>&,~{]^/.....",
"........--')!~#.........",
"........---',>>#........",
"........~(+_&,:>#.......",
"............ <#@+.......",
"........................",
"........................",
"........................",
"........................",
"........................",
"........................",
"........................",
"........................"};
