/* XPM */
static char * stick_toggled_prelight_xpm[] = {
"24 24 64 1",
" 	c #263C32",
".	c #002C1B",
"+	c #042C1C",
"@	c #1D2E25",
"#	c #1D2C24",
"$	c #272727",
"%	c #182C22",
"&	c #152E22",
"*	c #022C1C",
"=	c #062C1D",
"-	c #292929",
";	c #373737",
">	c #454545",
",	c #4B4B4B",
"'	c #363636",
")	c #012C1B",
"!	c #A3A3A3",
"~	c #555555",
"{	c #4C4C4C",
"]	c #565656",
"^	c #9C9C9C",
"/	c #2B2B2B",
"(	c #0B2D1E",
"_	c #4E4E4E",
":	c #ACACAC",
"<	c #B0B0B0",
"[	c #707070",
"}	c #BABABA",
"|	c #C4C4C4",
"1	c #212F27",
"2	c #686868",
"3	c #AFAFAF",
"4	c #6A6A6A",
"5	c #BBBBBB",
"6	c #1D2E26",
"7	c #444444",
"8	c #BCBCBC",
"9	c #6B6B6B",
"0	c #AEAEAE",
"a	c #B1B1B1",
"b	c #434343",
"c	c #4A4A4A",
"d	c #9F9F9F",
"e	c #898989",
"f	c #6E6E6E",
"g	c #383838",
"h	c #282828",
"i	c #282C2A",
"j	c #696969",
"k	c #212C26",
"l	c #212F28",
"m	c #888888",
"n	c #606060",
"o	c #747474",
"p	c #142D21",
"q	c #929292",
"r	c #A5A5A5",
"s	c #5B5B5B",
"t	c #242A27",
"u	c #062D1D",
"v	c #252A28",
"w	c #1E2D25",
"x	c #252826",
"y	c #222D27",
"                        ",
"........................",
"........................",
"........................",
"........................",
"........+@#$$%&*........",
".......=-;>,,>'-).......",
".......>!~{{]^{>/+......",
".....(-_:<~[}|{{>-*.....",
".....1;{23<45|{{{'6.....",
".....#7{890a45{{{b#.....",
".....$c{|523<4<defg.....",
".....hc{||890a~{{ch.....",
".....i7{|||5j33~{bk.....",
".....l'{amno<j:3~'p.....",
"......->{{{{]q~rstu.....",
".......v>{{{{{{>/)......",
".......)-'bcc7'-........",
"........)lw$xyl.........",
"........................",
"........................",
"........................",
"........................",
"........................"};
