/* XPM */
static char * stick_pressed_xpm[] = {
"24 24 27 1",
" 	c #263C32",
".	c #002C1B",
"+	c #646464",
"@	c #818181",
"#	c #909090",
"$	c #636363",
"%	c #515151",
"&	c #8E8E8E",
"*	c #949494",
"=	c #939393",
"-	c #9D9D9D",
";	c #DBDBDB",
">	c #EDEDED",
",	c #CACACA",
"'	c #A6A6A6",
")	c #B8B8B8",
"!	c #F6F6F6",
"~	c #FFFFFF",
"{	c #8F8F8F",
"]	c #626262",
"^	c #828282",
"/	c #F5F5F5",
"(	c #DEDEDE",
"_	c #B3B3B3",
":	c #9A9A9A",
"<	c #505050",
"[	c #808080",
"                        ",
"........................",
"........................",
"........................",
"........................",
"........ +@##@$ ........",
".......%&******&%.......",
"......%=****-;**=%......",
"..... &*>,')!~***{ .....",
".....+**~~~~~~****].....",
".....^**~~~~~~****@.....",
".....{**~~~~~~/(,_:.....",
".....&**~~~~~~****{.....",
".....@**~~~~~~****@.....",
".....$**>,')!~****].....",
"..... &*****-;***& .....",
"......%=********=<......",
".......%{******&<.......",
"........ ][{{[] ........",
"........................",
"........................",
"........................",
"........................",
"........................"};
