/* XPM */
static char * stick_toggled_pressed_xpm[] = {
"24 24 36 1",
" 	c #263C32",
".	c #002C1B",
"+	c #818181",
"@	c #909090",
"#	c #636363",
"$	c #8E8E8E",
"%	c #949494",
"&	c #A6A6A6",
"*	c #E3E3E3",
"=	c #9C9C9C",
"-	c #9D9D9D",
";	c #DBDBDB",
">	c #939393",
",	c #9B9B9B",
"'	c #EAEAEA",
")	c #EEEEEE",
"!	c #B4B4B4",
"~	c #F6F6F6",
"{	c #FFFFFF",
"]	c #8F8F8F",
"^	c #ADADAD",
"/	c #ECECEC",
"(	c #AEAEAE",
"_	c #F7F7F7",
":	c #626262",
"<	c #828282",
"[	c #F8F8F8",
"}	c #AFAFAF",
"|	c #EDEDED",
"1	c #DEDEDE",
"2	c #CACACA",
"3	c #B3B3B3",
"4	c #9A9A9A",
"5	c #B8B8B8",
"6	c #D3D3D3",
"7	c #808080",
"                        ",
"........................",
"........................",
"........................",
"........................",
"......... +@@+#.........",
"....... $%%%%%%$ .......",
"...... &*=%%-;%%> ......",
"......$,')=!~{%%%]......",
"..... %%^/)(_{%%%%:.....",
".....<%%[}/)(_%%%%+.....",
".....]%%{_^/)(|1234.....",
".....$%%{{[}/)=%%%].....",
".....+%%{{{_(//=%%+.....",
".....#%%|2&5)('/=%:.....",
"......$%%%%%-6=*&$ .....",
"...... >%%%%%%%%> ......",
"....... ]%%%%%%$ .......",
".........:7]]7: ........",
"........................",
"........................",
"........................",
"........................",
"........................"};
