/* XPM */
static char * stick_prelight_xpm[] = {
"24 24 53 1",
" 	c #263C32",
".	c #002C1B",
"+	c #022C1C",
"@	c #172E22",
"#	c #1C2C24",
"$	c #252826",
"%	c #272727",
"&	c #1D2C24",
"*	c #0F2D1F",
"=	c #012C1B",
"-	c #292929",
";	c #373737",
">	c #454545",
",	c #4B4B4B",
"'	c #363636",
")	c #022D1C",
"!	c #032C1C",
"~	c #2A2A2A",
"{	c #464646",
"]	c #4C4C4C",
"^	c #565656",
"/	c #9C9C9C",
"(	c #2B2B2B",
"_	c #042D1C",
":	c #242A27",
"<	c #B1B1B1",
"[	c #888888",
"}	c #606060",
"|	c #747474",
"1	c #BABABA",
"2	c #C4C4C4",
"3	c #202A25",
"4	c #192E24",
"5	c #052D1C",
"6	c #232C27",
"7	c #444444",
"8	c #434343",
"9	c #4A4A4A",
"0	c #B9B9B9",
"a	c #9F9F9F",
"b	c #898989",
"c	c #6E6E6E",
"d	c #22312A",
"e	c #282828",
"f	c #272828",
"g	c #252C28",
"h	c #122D21",
"i	c #1B2E25",
"j	c #082D1D",
"k	c #012C1C",
"l	c #212F28",
"m	c #282D2A",
"n	c #1E2D25",
"                        ",
"........................",
"........................",
"........................",
"........................",
"........+@#$%&*.........",
".......=-;>,,>'-).......",
"......!~{]]]^/]>(_......",
".....=:{<[}|12]]>3......",
".....4;]222222]]]'5.....",
".....67]222222]]]8&.....",
".....%9]2222220abcd.....",
".....e9]222222]]]9f.....",
".....67]222222]]]8g.....",
".....h']<[}|12]]]'i.....",
".....=->]]]]^/]]>-......",
"......j~>]]]]]]>(!......",
"........-'8997':=.......",
"........klm%%nl+........",
"........................",
"........................",
"........................",
"........................",
"........................"};
