/* XPM */
static char * title_2_active_xpm[] = {
"24 24 2 1",
" 	c #263C32",
".	c #002C1B",
"                        ",
"........................",
"........................",
"........................",
"........................",
"........................",
"........................",
"........................",
"........................",
"........................",
"........................",
"........................",
"........................",
"........................",
"........................",
"........................",
"........................",
"........................",
"........................",
"........................",
"........................",
"........................",
"........................",
"........................"};
