/* XPM */
static char * top_right_active_xpm[] = {
"5 24 2 1",
" 	c #263C32",
".	c #002C1B",
"     ",
".....",
".....",
".....",
".....",
".....",
".....",
".....",
".....",
".....",
".....",
".....",
".....",
".....",
".....",
".....",
".....",
".....",
".....",
".....",
".....",
".....",
".....",
"....."};
